# xmcd
#
# Track frame offsets:
#	150
#	14110
#	27043
#	40973
#	58844
#	68947
#	82324
#	97227
#	106751
#	119446
#	133373
#	144529
#	157484
#	180723
#	197209
#	209980
#	221743
#	242670
#	270386
#
# Disc length: 3994
#
# Revision: 3
# Processed by: cddbd v1.5.1PL0 Copyright (c) Steve Scherf et al.
# Submitted via: CDex 1.50beta10
# Normalized: r2:DSETVAR2
#
DISCID=3c0f9813
DTITLE=Various Artist - Lady Sings The Blues Vol2 - CD1
DYEAR=2003
DGENRE=Blues
TTITLE0=Aretha Franklin - All Night Long
TTITLE1=Peggy Lee - As Time Goes By
TTITLE2=Nina Simone - I Wish I Knew (How It Would Feel To Be Free)
TTITLE3=Sarah Vaughan - Lover Man (Oh Where Can You Be)
TTITLE4=Julie London - Go Slow
TTITLE5=Nancy Wilson - The Nearness of You
TTITLE6=Billie Holiday - Georgia On My Mind
TTITLE7=Dinah Washington - Baby Won't You Please Come Home
TTITLE8=Dusty Springfield - You Don't Have To Say You Love Me
TTITLE9=P P Arnold - The First Cut Is The Deepest
TTITLE10=Ann Peebles - I Can't Stand The Rain
TTITLE11=Irma Thomas - Time Is On My Side
TTITLE12=Esther Phillips - How Blue Can You Get?
TTITLE13=Lou Rawls and Dianne Reeves - At Last
TTITLE14=Julie London - In The Wee Small Hours Of The Morning
TTITLE15=Ella Fitzgerald and The Delta Rythm Boys - (It's Only A) Paper Moon
TTITLE16=Eva Cassidy and Chuck Brown - Need Your Love So Bad
TTITLE17=Joss Stone - The Chokin' Kind
TTITLE18=Data Track - Data Track
EXTD=YEAR: 2003
EXTT0=
EXTT1=
EXTT2=
EXTT3=
EXTT4=
EXTT5=
EXTT6=
EXTT7=
EXTT8=
EXTT9=
EXTT10=
EXTT11=
EXTT12=
EXTT13=
EXTT14=
EXTT15=
EXTT16=
EXTT17=
EXTT18=
PLAYORDER=
